<?xml version="1.0" encoding="UTF-8"?>
<svg id="Lager_1" data-name="Lager 1" xmlns="http://www.w3.org/2000/svg" width="33.526" height="42" viewBox="0 0 33.526 42">
  <defs>
    <style>
      .cls-1 {
        fill: #642f3d;
      }
    </style>
  </defs>
  <path class="cls-1" d="m16.792,33.528c9.224,0,16.734-7.483,16.734-16.79C33.526,7.485,26.016,0,16.792,0,7.512,0,0,7.485,0,16.738c0,9.307,7.512,16.79,16.792,16.79Zm0-1.307c-8.7,0-15.484-6.757-15.484-15.482C1.307,8.065,8.091,1.281,16.792,1.281c8.643,0,15.454,6.784,15.454,15.458,0,8.725-6.811,15.482-15.454,15.482Zm-7.335,9.779h14.615c.348,0,.654-.281.654-.654,0-.348-.306-.627-.654-.627h-14.588c-.346,0-.654.279-.654.627,0,.373.281.654.627.654Zm6.681-.654h1.281v-8.406h-1.281v8.406Z"/>
  <path class="cls-1" d="m16.792,26.402c5.37,0,9.607-4.239,9.607-9.664,0-5.372-4.237-9.637-9.607-9.637-5.398,0-9.637,4.266-9.637,9.637,0,5.425,4.239,9.664,9.637,9.664Zm0-5.139c-2.524,0-4.498-2.002-4.498-4.525,0-2.498,1.974-4.471,4.498-4.471,2.469,0,4.442,1.974,4.442,4.471,0,2.522-1.974,4.525-4.442,4.525Z"/>
</svg>