<?xml version="1.0" encoding="UTF-8"?>
<svg id="Lager_1" data-name="Lager 1" xmlns="http://www.w3.org/2000/svg" width="45.69" height="42" viewBox="0 0 45.69 42">
  <defs>
    <style>
      .cls-1 {
        fill: #642f3d;
      }
    </style>
  </defs>
  <path class="cls-1" d="m5.047,39.73h21.897c-.048-.198-.071-.415-.095-.634l-.044-.467H5.097c-2.625,0-3.974-1.372-3.974-3.997V15.499c0-1.58.048-2.103.799-3.131l3.509-4.607c.136-.192.19-.377.19-.601v-3.074c0-1.945.924-2.984,2.724-2.984h15.671c1.779,0,2.724,1.039,2.724,2.984v3.074c0,.224.055.409.19.601l3.488,4.607c.769,1.002.818,1.541.818,3.01h1.124c-.002-1.8-.131-2.436-1.04-3.658l-3.458-4.6v-3.115C27.864,1.396,26.551,0,24.064,0h-15.767C5.811,0,4.498,1.396,4.498,4.005v3.115l-3.479,4.6c-.913,1.249-1.019,1.886-1.019,3.788v19.182c0,3.314,1.751,5.04,5.047,5.04ZM10.489,5.617h11.086c.306,0,.535-.229.535-.537,0-.283-.229-.537-.535-.537h-11.086c-.283,0-.535.254-.535.537,0,.308.252.537.535.537Z"/>
  <path class="cls-1" d="m31.693,42h8.676c2.004,0,3.107-1.016,3.289-3.061l2.026-20.968c.055-.658-.269-1.058-.925-1.058h-17.456c-.654,0-.978.402-.924,1.058l2.027,20.968c.203,2.045,1.283,3.061,3.287,3.061Zm.01-1.116c-1.334,0-2.09-.686-2.233-2.046l-1.945-20.787h17.014l-1.946,20.787c-.122,1.36-.901,2.046-2.21,2.046h-8.68Zm3.836-23.526h1.199l.124-1.714c.074-1.102.438-1.714,1.381-2.414l6.475-4.669c.62-.451-.03-1.52-.819-.926l-6.228,4.498c-1.394.997-1.855,1.888-1.982,3.452l-.15,1.774Z"/>
</svg>