<?xml version="1.0" encoding="UTF-8"?>
<svg id="Lager_1" data-name="Lager 1" xmlns="http://www.w3.org/2000/svg" width="56.7" height="42" viewBox="0 0 56.7 42">
  <defs>
    <style>
      .cls-1 {
        fill: #642f3d;
      }
    </style>
  </defs>
  <path class="cls-1" d="m28.32,17.023c11.728,0,20.045-3.696,20.045-8.513S40.05,0,28.32,0,8.306,3.696,8.306,8.51s8.316,8.513,20.015,8.513Zm16.902,6.44c6.466,1.778,10.097,4.465,10.097,7.53,0,5.361-11.806,9.621-26.999,9.621S1.381,36.354,1.381,30.993c0-3.063,3.563-5.745,10.216-7.583l-.718-1.277C3.928,24.153,0,27.351,0,30.993c0,6.394,11.949,11.007,28.32,11.007s28.38-4.613,28.38-11.007c0-3.624-3.951-6.859-10.737-8.848l-.74,1.318Zm-16.902-7.839c-10.858,0-18.623-3.156-18.623-7.113,0-3.984,7.766-7.111,18.623-7.111s18.654,3.128,18.654,7.111c0,3.957-7.765,7.113-18.654,7.113Zm18.654-7.113v4.433c0,10.809-6.25,18.203-18.027,18.203h-1.254c-11.833,0-17.996-7.363-17.996-18.203v-4.433h-1.391v4.433c0,11.523,6.872,19.604,19.388,19.604h1.254c12.518,0,19.418-8.08,19.418-19.604v-4.433h-1.391Zm-.658,13.238h1.989c4.196,0,6.972-2.532,6.972-6.354,0-3.789-2.778-6.321-6.972-6.321h-.359v1.371h.359c3.377,0,5.609,1.983,5.609,4.951,0,2.998-2.232,4.984-5.609,4.984h-1.989v1.371Z"/>
</svg>