<?xml version="1.0" encoding="UTF-8"?>
<svg id="Lager_1" data-name="Lager 1" xmlns="http://www.w3.org/2000/svg" width="64.118" height="42" viewBox="0 0 64.118 42">
  <defs>
    <style>
      .cls-1 {
        fill: #642f3d;
      }
    </style>
  </defs>
  <path class="cls-1" d="m4.797,42h54.524c2.962,0,4.797-1.832,4.797-4.76v-7.222c0-2.928-1.834-4.758-4.797-4.758H4.797c-2.962,0-4.797,1.83-4.797,4.758v7.222c0,2.928,1.834,4.76,4.797,4.76Zm0-1.423c-2.051,0-3.347-1.259-3.347-3.338v-7.222c0-2.049,1.296-3.308,3.347-3.308h54.524c2.08,0,3.374,1.259,3.374,3.308v7.222c0,2.078-1.293,3.338-3.374,3.338H4.797Zm2.473-7.472h8.025c.38,0,.705-.325.705-.732,0-.38-.325-.705-.705-.705H7.27c-.377,0-.703.325-.703.705,0,.407.325.732.703.732Zm48.356,3.167c1.464,0,2.64-1.176,2.64-2.644,0-1.493-1.176-2.67-2.64-2.67s-2.674,1.176-2.674,2.67c0,1.468,1.206,2.644,2.674,2.644Zm-18.117,0c1.466,0,2.613-1.208,2.613-2.674s-1.147-2.64-2.613-2.64c-1.495,0-2.701,1.176-2.701,2.64s1.206,2.674,2.701,2.674Zm-9.072,0c1.466,0,2.642-1.208,2.642-2.674s-1.176-2.64-2.642-2.64-2.672,1.176-2.672,2.64,1.206,2.674,2.672,2.674Zm18.146,0c1.434,0,2.61-1.208,2.61-2.674s-1.176-2.64-2.61-2.64c-1.498,0-2.704,1.176-2.704,2.64s1.206,2.674,2.704,2.674Z"/>
  <path class="cls-1" d="m32.072,16.406c-2.648,0-5.264.826-7.166,2.281-.33.282-.405.751-.157,1.019.314.394.726.377,1.124.091,1.652-1.246,3.881-1.992,6.199-1.992,2.293,0,4.551.746,6.199,1.992.368.289.81.305,1.126-.091.216-.268.169-.735-.159-1.019-1.909-1.455-4.525-2.281-7.166-2.281Z"/>
  <path class="cls-1" d="m32.074,8.232c-4.592,0-8.617,1.273-11.774,3.713-.302.255-.377.632-.155.962.191.298.63.43.967.203,2.927-2.284,6.691-3.479,10.962-3.479,4.241,0,8.033,1.196,10.93,3.479.366.227.778.095.996-.203.223-.33.15-.707-.182-.962-3.15-2.441-7.175-3.713-11.744-3.713Z"/>
  <path class="cls-1" d="m32.071,0C26.148,0,20.533,1.749,15.66,5.137c-.332.257-.407.637-.216.994.282.33.721.4,1.026.146,4.088-3.148,9.535-4.882,15.601-4.882s11.482,1.734,15.572,4.882c.334.255.744.184,1.026-.146.223-.36.146-.739-.218-.994C43.605,1.749,37.99,0,32.071,0Z"/>
</svg>