<?xml version="1.0" encoding="UTF-8"?>
<svg id="Lager_1" data-name="Lager 1" xmlns="http://www.w3.org/2000/svg" width="50" height="50" viewBox="0 0 50 50">
  <defs>
    <style>
      .cls-1 {
        fill: #e9e9e9;
      }

      .cls-2 {
        fill: none;
        stroke: #3f3f3f;
        stroke-linecap: round;
        stroke-linejoin: round;
        stroke-width: 1.5px;
      }
    </style>
  </defs>
  <circle class="cls-1" cx="25" cy="25" r="25"/>
  <path class="cls-2" d="m17.407,19.77h-3.923c-.694,0-1.359.275-1.849.766-.49.49-.766,1.156-.766,1.849v5.23c0,.694.276,1.359.766,1.849.49.491,1.156.766,1.849.766h3.923v-10.461Z"/>
  <path class="cls-2" d="m17.407,30.23l10.225,7.349c.379.262.82.42,1.279.456.459.037.92-.049,1.336-.247.451-.202.835-.529,1.108-.941.273-.412.424-.893.435-1.387V14.539c.011-.47-.104-.934-.334-1.343-.23-.41-.566-.75-.973-.984-.416-.198-.876-.284-1.336-.247-.459.037-.901.194-1.28.456l-10.461,7.349"/>
  <path class="cls-2" d="m37.021,21.077c.909,1.099,1.375,2.498,1.308,3.923.068,1.425-.399,2.824-1.308,3.923"/>
</svg>