<?xml version="1.0" encoding="UTF-8"?>
<svg id="Lager_1" data-name="Lager 1" xmlns="http://www.w3.org/2000/svg" width="33.823" height="42" viewBox="0 0 33.823 42">
  <defs>
    <style>
      .cls-1 {
        fill: #642f3d;
      }
    </style>
  </defs>
  <path class="cls-1" d="m24.021,18.719c.25.153.519.103.699-.114,1.318-1.696,2.25-4.083,2.25-6.94s-.932-5.243-2.25-6.94c-.18-.217-.449-.267-.699-.112-.22.181-.269.474-.062.755,1.372,1.885,2.021,3.776,2.021,6.298s-.651,4.411-2.021,6.298c-.205.283-.158.574.062.757Z"/>
  <path class="cls-1" d="m29.467,23.28c.255.156.522.125.702-.113,2.217-2.849,3.654-7.143,3.654-11.503s-1.436-8.657-3.654-11.503c-.18-.238-.447-.269-.702-.112-.235.177-.264.446-.081.727,2.232,2.939,3.448,6.758,3.448,10.888s-1.219,7.947-3.448,10.888c-.181.281-.153.55.081.727Z"/>
  <path class="cls-1" d="m10.001,41.783c.22.213.525.241.764.001l5.295-5.295c.258-.238.255-.588-.002-.803l-3.462-3.442,4.692-4.672c.236-.195.214-.566-.042-.803l-4.748-4.77c5.307-1.981,8.247-5.766,8.247-10.335,0-5.725-4.618-10.36-10.363-10.36C4.594,1.305,0,5.918,0,11.665c0,4.41,2.676,8.276,6.831,9.778v16.694c0,.269.096.606.379.883l2.791,2.762Zm.381-1.032l-2.533-2.533v-17.504C3.787,19.548.996,15.935.996,11.665.996,6.512,5.166,2.323,10.382,2.323c5.175,0,9.343,4.169,9.343,9.342,0,4.227-2.792,7.884-8.204,9.499v1.32l4.709,4.709-4.551,4.507v1.045l3.343,3.321-4.641,4.685Zm0-30.096c1.398,0,2.528-1.11,2.528-2.528s-1.131-2.547-2.528-2.547c-1.418,0-2.547,1.131-2.547,2.547s1.131,2.528,2.547,2.528Z"/>
</svg>