<?xml version="1.0" encoding="UTF-8"?>
<svg id="Lager_1" data-name="Lager 1" xmlns="http://www.w3.org/2000/svg" width="350" height="350" viewBox="0 0 350 350">
  <defs>
    <style>
      .cls-1 {
        fill: none;
        stroke-linecap: round;
        stroke-linejoin: round;
      }

      .cls-1, .cls-2 {
        stroke: #2d3547;
        stroke-width: 5px;
      }

      .cls-2 {
        fill: #edf0f7;
      }
    </style>
  </defs>
  <rect class="cls-2" x="2.171" y="2.561" width="345" height="345" rx="5.5" ry="5.5"/>
  <path class="cls-1" d="m137.503,218.993h74.404c3.736,0,6.764-3.028,6.764-6.764v-74.404c0-3.736-3.028-6.764-6.764-6.764h-74.404c-3.736,0-6.764,3.028-6.764,6.764v74.404c0,3.736,3.028,6.764,6.764,6.764Z"/>
  <path class="cls-1" d="m189.856,171.645c6.538,0,11.837-5.299,11.837-11.837s-5.299-11.837-11.837-11.837-11.837,5.3-11.837,11.837,5.3,11.837,11.837,11.837Z"/>
  <path class="cls-1" d="m190.871,218.993c-2.178-11.6-8.407-22.049-17.575-29.483-9.168-7.433-20.679-11.368-32.479-11.101-3.404-.009-6.802.308-10.146.947"/>
  <path class="cls-1" d="m218.603,194.711c-5.448-1.84-11.16-2.777-16.91-2.774-7.278-.015-14.483,1.458-21.171,4.329"/>
</svg>