<?xml version="1.0" encoding="UTF-8"?>
<svg id="Lager_1" data-name="Lager 1" xmlns="http://www.w3.org/2000/svg" width="462.435" height="317.988" xmlns:xlink="http://www.w3.org/1999/xlink" viewBox="0 0 462.435 317.988">
  <defs>
    <style>
      .cls-1 {
        stroke: #616160;
        stroke-linecap: round;
        stroke-linejoin: round;
      }

      .cls-1, .cls-2 {
        fill: none;
      }

      .cls-3 {
        fill: #f4f4f4;
      }

      .cls-4 {
        fill: #f1f1f1;
      }

      .cls-5 {
        fill: #c2c1c1;
      }

      .cls-6 {
        fill: url(#Namnlös_övertoning_2-2);
      }

      .cls-7 {
        fill: url(#Namnlös_övertoning_2);
      }

      .cls-2 {
        stroke: #bcbcbb;
      }
    </style>
    <radialGradient id="Namnlös_övertoning_2" data-name="Namnlös övertoning 2" cx="-14.898" cy="410.686" fx="-14.898" fy="410.686" r="1" gradientTransform="translate(-39285.914 1753.728) rotate(89.209) scale(76.627 -96.54)" gradientUnits="userSpaceOnUse">
      <stop offset="0" stop-color="#a8d8d5"/>
      <stop offset="1" stop-color="#37b6ac"/>
    </radialGradient>
    <radialGradient id="Namnlös_övertoning_2-2" data-name="Namnlös övertoning 2" r="1" gradientTransform="translate(-39221.914 1942.728) rotate(89.209) scale(76.627 -96.54)" xlink:href="#Namnlös_övertoning_2"/>
  </defs>
  <g>
    <rect class="cls-3" x="10.116" y="77.229" width="205" height="188" rx="20" ry="20" transform="translate(-24.277 18.71) rotate(-8.577)"/>
    <line class="cls-2" x1="30.107" y1="141.104" x2="184.363" y2="117.839"/>
    <line class="cls-2" x1="35.476" y1="176.701" x2="189.732" y2="153.436"/>
    <line class="cls-2" x1="40.845" y1="212.299" x2="195.101" y2="189.034"/>
    <line class="cls-2" x1="46.214" y1="247.896" x2="200.47" y2="224.631"/>
    <path d="m73.356,115.622l-1.703,6.811c-.028.133-.085.243-.169.329-.084.085-.186.137-.304.155-.174.026-.312-.002-.413-.084-.103-.089-.169-.209-.2-.358-.008-.055-.006-.12.007-.195l1.915-7.74c.035-.143.099-.258.191-.345.1-.088.214-.137.342-.148.119-.018.235,0,.348.056.114.056.204.144.27.263l4.061,6.73c.044.074.071.151.083.23.026.174-.012.325-.114.454-.095.119-.214.19-.356.211-.119.018-.235,0-.348-.056-.107-.065-.193-.153-.258-.265l-3.655-5.965.303-.083Zm-1.483,5.054l.362-1.22,3.358-.506.373,1.109-4.094.617Zm9.058-5.808c.427-.064.814-.074,1.16-.029.345.037.622.125.829.263.214.13.337.301.369.515.02.134,0,.267-.061.398-.062.122-.173.196-.331.219-.111.017-.209.012-.294-.016-.077-.029-.152-.066-.223-.112-.072-.046-.159-.089-.262-.13-.094-.035-.231-.054-.41-.06-.171-.006-.324,0-.458.021-.419.063-.769.213-1.049.449-.272.235-.471.528-.596.879-.117.349-.145.729-.083,1.141.062.411.201.767.416,1.066.223.298.495.52.816.665.329.145.692.187,1.087.128.237-.036.429-.081.574-.135.144-.063.268-.13.37-.202.108-.089.196-.175.264-.258.075-.092.188-.15.338-.173.174-.026.313.01.417.108.11.088.178.211.201.37.026.174-.055.36-.243.558-.182.189-.439.362-.772.517-.333.155-.708.265-1.128.328-.617.093-1.176.032-1.678-.184-.494-.217-.904-.551-1.231-1.003-.319-.454-.525-.989-.618-1.606-.094-.625-.047-1.199.141-1.72.187-.53.493-.973.916-1.328.424-.355.936-.578,1.537-.669Zm6.39-.964c.427-.064.814-.074,1.161-.029.345.037.622.125.829.263.214.13.337.302.369.515.02.135,0,.267-.061.398-.062.122-.173.196-.331.22-.111.016-.209.011-.294-.017-.077-.029-.151-.066-.223-.112-.072-.046-.159-.089-.262-.13-.094-.034-.231-.054-.41-.06-.171-.006-.324,0-.458.021-.419.063-.769.213-1.049.449-.272.235-.47.528-.596.879-.117.349-.145.73-.083,1.141.062.411.201.767.416,1.066.223.298.495.52.816.666.329.144.692.187,1.087.127.237-.036.429-.081.574-.135.144-.062.268-.13.37-.202.108-.089.196-.175.264-.258.075-.092.188-.15.338-.172.174-.027.313.009.417.107.111.088.178.212.201.37.026.174-.055.36-.243.558-.182.19-.439.362-.772.517-.332.156-.708.265-1.128.328-.617.093-1.176.032-1.678-.184-.494-.216-.904-.551-1.231-1.003-.319-.454-.525-.989-.618-1.606-.094-.625-.047-1.198.141-1.72.187-.53.493-.973.916-1.328.424-.355.936-.578,1.537-.669Zm7.513,5.518c-.657.099-1.246.05-1.77-.146-.524-.204-.957-.523-1.297-.957-.334-.443-.547-.974-.64-1.591-.105-.696-.056-1.31.147-1.842.21-.541.52-.977.932-1.306.41-.337.869-.543,1.375-.62.388-.058.767-.034,1.139.071.371.098.711.265,1.022.501.317.228.584.515.798.863.213.34.356.727.43,1.161.016.159-.028.299-.131.42-.103.121-.234.193-.392.217l-4.616.696-.437-.965,4.462-.673-.193.247-.045-.296c-.058-.275-.185-.502-.382-.683-.198-.189-.428-.32-.69-.393-.263-.082-.529-.103-.798-.062-.237.036-.461.11-.67.222-.203.104-.379.252-.528.444-.141.191-.242.433-.303.725-.054.284-.051.627.01,1.03.066.435.214.801.445,1.098.231.297.514.513.85.649.335.127.688.163,1.06.107.293-.044.53-.108.711-.192.18-.092.327-.191.441-.297.113-.106.212-.206.295-.3.108-.089.221-.142.34-.16.142-.022.269.012.379.1.11.081.174.189.195.323.026.174-.037.345-.19.514-.182.238-.452.465-.808.68-.348.214-.728.353-1.139.415Zm3.704-1.675c-.088-.1-.139-.222-.153-.366-.014-.151.05-.29.192-.417.1-.088.211-.133.332-.135.128-.011.255.03.383.124.258.212.533.369.823.471.298.1.641.121,1.029.063.157-.032.316-.08.476-.145.159-.072.289-.173.391-.301.101-.137.135-.316.101-.537-.03-.198-.117-.347-.261-.446-.145-.1-.325-.17-.542-.21-.217-.048-.449-.086-.696-.113-.264-.033-.533-.074-.807-.121-.267-.049-.513-.125-.739-.229-.227-.111-.424-.268-.592-.469-.16-.202-.265-.466-.314-.79-.056-.372,0-.708.164-1.008.173-.301.414-.551.724-.752.317-.202.674-.332,1.069-.392.23-.034.476-.039.739-.014.261.017.52.071.776.162.257.091.488.226.693.405.094.091.156.207.186.348.037.14-.007.276-.133.409-.083.093-.192.146-.328.158-.136.013-.253-.014-.352-.08-.179-.167-.395-.284-.648-.351-.254-.075-.531-.09-.832-.045-.15.023-.304.07-.463.143-.153.063-.276.159-.37.286-.094.128-.125.298-.093.512.03.198.117.346.262.446.152.098.341.171.567.218.225.047.469.083.732.108.255.026.507.065.758.116.258.05.493.132.704.246.218.104.403.258.555.462.159.195.264.458.314.79.058.388-.006.737-.194,1.049-.181.302-.435.551-.761.746-.319.193-.668.319-1.048.376-.451.068-.914.057-1.388-.033-.468-.099-.887-.328-1.256-.684Zm5.903-.891c-.088-.1-.138-.222-.152-.365-.015-.152.049-.291.192-.418.1-.087.211-.132.332-.135.127-.011.255.031.382.125.259.212.533.368.824.47.298.101.641.122,1.029.063.157-.031.315-.079.475-.144.159-.073.29-.173.392-.302.101-.136.134-.315.101-.537-.03-.198-.117-.346-.262-.446-.144-.099-.324-.169-.541-.21-.217-.048-.45-.085-.697-.113-.263-.033-.532-.073-.807-.121-.266-.049-.512-.125-.738-.228-.227-.112-.425-.268-.592-.469-.16-.203-.265-.466-.314-.79-.056-.372,0-.708.164-1.008.173-.301.414-.552.724-.752.317-.202.674-.333,1.069-.392.23-.035.476-.04.738-.014.262.017.521.071.777.162.257.09.487.225.692.405.095.091.157.207.186.348.038.14-.007.276-.132.408-.083.094-.193.147-.328.159-.136.012-.253-.014-.352-.08-.179-.168-.395-.285-.648-.352-.254-.075-.531-.09-.832-.044-.15.022-.305.07-.464.143-.152.063-.275.158-.369.286-.094.127-.125.298-.093.511.03.198.117.347.262.446.152.099.341.171.566.218.226.047.47.083.733.108.254.027.507.065.758.117.258.05.493.132.704.245.218.105.403.259.555.463.159.194.263.458.314.79.058.387-.007.737-.194,1.048-.181.303-.435.551-.762.746-.318.194-.667.319-1.047.377-.451.068-.914.057-1.389-.034-.468-.099-.886-.327-1.256-.684Zm7.443-.746c.026.174-.007.329-.1.464-.094.127-.228.204-.402.23-.166.026-.317-.008-.453-.101-.128-.102-.206-.24-.232-.414l-.766-5.079c-.026-.174.008-.325.102-.452.101-.137.234-.217.4-.242.174-.027.326.011.454.113.128.094.204.228.231.402l.766,5.079Zm-1.581-6.376c-.229.035-.401.02-.516-.043-.116-.072-.189-.206-.219-.404l-.028-.19c-.03-.198.004-.345.103-.44.099-.096.259-.161.481-.194.237-.036.414-.018.529.053.115.064.187.191.216.381l.028.189c.031.206-.003.357-.101.453-.091.094-.255.159-.493.195Zm5.687-.154c.554-.083,1.065-.019,1.534.194.477.211.879.543,1.206.995.326.444.537.983.632,1.616.095.633.054,1.213-.126,1.742-.179.529-.46.968-.845,1.317-.385.341-.847.552-1.385.634-.3.045-.592.04-.875-.014-.285-.062-.541-.153-.77-.272-.229-.128-.424-.268-.585-.422-.153-.155-.256-.305-.311-.45l.297-.203.156,1.032c.025.166-.013.318-.114.454-.094.128-.224.204-.39.229-.174.026-.325-.008-.452-.102s-.204-.228-.231-.402l-1.156-7.665c-.026-.174.008-.325.102-.452.093-.136.226-.216.4-.243.167-.025.314.014.443.116.135.093.216.226.242.4l.503,3.334-.206-.078c0-.154.053-.319.156-.497.101-.185.235-.367.403-.546.175-.18.378-.332.61-.456.239-.133.493-.22.762-.261Zm.034,1.112c-.38.057-.697.202-.954.435-.248.231-.427.521-.536.87-.11.34-.135.716-.073,1.127.062.411.198.771.406,1.08.207.3.463.524.769.672.313.147.66.192,1.04.135.371-.056.681-.2.93-.432.248-.231.426-.525.534-.881.116-.357.144-.738.083-1.141-.062-.412-.2-.763-.414-1.054-.207-.301-.463-.525-.769-.673-.305-.148-.644-.194-1.016-.138Zm6.416,3.826c.026.174-.007.329-.1.464-.094.127-.228.204-.402.23-.167.025-.317-.008-.453-.101-.128-.102-.206-.24-.232-.414l-.766-5.079c-.026-.174.008-.325.102-.452.101-.137.234-.217.4-.242.174-.027.325.011.454.113.128.094.204.228.231.402l.766,5.079Zm-1.581-6.376c-.229.035-.401.02-.516-.043-.116-.072-.189-.206-.219-.404l-.028-.19c-.03-.198.004-.345.103-.44.099-.096.259-.161.481-.194.237-.036.413-.018.529.053.115.064.187.191.216.38l.028.19c.031.206-.003.357-.102.453-.09.094-.255.159-.492.195Zm4.696,5.906c.026.174-.011.329-.112.466-.094.127-.224.204-.39.229-.167.025-.317-.009-.453-.102-.128-.102-.206-.24-.232-.414l-1.142-7.57c-.026-.174.012-.326.114-.454.101-.137.234-.218.4-.243.174-.026.322.012.442.115.128.095.205.229.231.403l1.142,7.57Zm3.118-.47c.027.174-.007.328-.1.464-.094.127-.228.204-.402.23-.166.025-.317-.009-.452-.101-.129-.102-.206-.24-.232-.414l-.766-5.079c-.026-.174.007-.325.102-.452.1-.137.234-.218.4-.243.174-.026.325.012.454.114.127.094.204.228.23.402l.766,5.079Zm-1.58-6.376c-.23.035-.402.02-.516-.043-.116-.072-.189-.207-.219-.404l-.029-.19c-.03-.198.005-.345.104-.441.099-.095.259-.16.48-.193.238-.036.414-.018.53.053.115.064.187.19.215.38l.029.19c.031.206-.003.357-.102.452-.091.095-.255.16-.492.196Zm2.491.547l2.789-.421c.158-.024.297.012.416.107.127.086.202.208.226.367.022.15-.014.285-.109.404-.088.119-.21.19-.368.214l-2.789.42c-.158.024-.3-.007-.427-.093-.119-.095-.19-.218-.213-.369-.024-.158.008-.296.095-.414.095-.12.222-.192.38-.215Zm1.014-1.731c.174-.026.325.012.454.114.127.094.204.228.23.402l.831,5.505c.021.143.062.254.123.334.06.08.133.129.216.149.092.019.182.021.269.008.087-.013.159-.04.218-.081.066-.043.147-.071.242-.085.095-.015.188.016.281.091.092.075.149.188.172.338.029.19-.051.36-.239.509-.187.15-.4.243-.637.279-.135.02-.295.032-.48.036-.186.003-.373-.029-.561-.098-.181-.07-.342-.199-.483-.388-.143-.197-.244-.485-.301-.865l-.837-5.553c-.027-.174.007-.325.101-.453.101-.136.235-.217.401-.242Zm8.506.173c.174-.026.325.012.454.114.127.094.204.228.23.402l.77,5.102c.105.697.055,1.282-.148,1.758-.195.475-.504.845-.925,1.11-.412.273-.898.452-1.46.536-.285.043-.574.058-.867.046-.292-.004-.536-.04-.732-.108-.203-.058-.354-.145-.452-.259-.098-.115-.131-.252-.098-.41.027-.199.102-.343.226-.435.124-.084.262-.108.413-.074.143.035.332.079.566.133.235.053.495.059.779.016.388-.059.707-.172.957-.339.249-.167.421-.395.515-.684.102-.291.121-.65.056-1.077l-.123-.819.233.257c-.088.28-.221.522-.4.727-.18.205-.405.377-.675.515-.263.136-.564.23-.904.282-.435.065-.825.027-1.17-.115-.339-.151-.617-.384-.834-.699-.219-.323-.361-.706-.428-1.149l-.532-3.525c-.026-.174.008-.324.102-.452.093-.135.226-.216.4-.242.166-.025.314.013.442.115.136.093.217.226.243.4l.483,3.204c.079.522.251.889.518,1.099.265.203.623.27,1.074.202.301-.045.552-.148.754-.308.203-.16.351-.36.444-.6.092-.249.115-.524.07-.824l-.483-3.204c-.027-.174.007-.325.101-.452.101-.137.234-.217.401-.243Z"/>
    <path class="cls-1" d="m42.07,123.602l3.145,1.822c.085.051.18.082.278.091.098.01.198-.003.29-.037.094-.032.18-.085.251-.154.072-.068.128-.152.164-.244l3.259-8.193"/>
    <path class="cls-1" d="m47.314,130.513c4.915-.742,8.298-5.327,7.557-10.242-.741-4.915-5.327-8.298-10.242-7.557-4.915.741-8.298,5.327-7.557,10.242s5.327,8.298,10.242,7.557Z"/>
    <path d="m77.491,158.323c-.19.029-.364,0-.523-.091-.16-.097-.254-.232-.28-.406l-1.07-7.096c-.026-.174.012-.325.114-.454.101-.137.234-.217.4-.243l3.346-.504c.427-.065.835-.017,1.223.143.387.152.715.398.985.737.276.331.45.733.522,1.208.048.316.03.631-.052.942-.084.304-.215.583-.396.837-.18.253-.396.456-.649.607l-.165-.206c.258.05.491.145.698.284.206.13.377.299.513.505.143.197.239.433.289.708.061.242.112.445.152.609.048.154.099.28.154.377.055.097.138.165.249.205.154.058.259.163.315.317.063.152.053.299-.03.441-.057.106-.138.183-.244.231-.099.039-.206.059-.319.06-.114-.007-.214-.024-.299-.052-.138-.06-.286-.151-.442-.273-.149-.131-.283-.321-.402-.57-.118-.25-.21-.588-.274-1.015-.03-.198-.087-.363-.172-.496-.085-.133-.189-.234-.313-.305-.125-.078-.266-.125-.422-.142-.158-.025-.327-.024-.509.004l-2.516.379.13-.262.428,2.836c.026.174,0,.327-.076.46-.078.125-.2.2-.366.225Zm-.259-4.293l2.836-.428c.181-.035.344-.132.49-.292.153-.169.262-.379.329-.632.075-.254.09-.532.044-.832-.057-.38-.22-.679-.487-.897-.261-.228-.545-.319-.854-.272l-2.777.419.084-.329.526,3.489-.192-.226Zm10.598,2.856c-.657.099-1.246.05-1.769-.146-.524-.204-.957-.523-1.297-.957-.334-.444-.547-.974-.64-1.591-.105-.696-.056-1.31.147-1.842.21-.542.52-.977.932-1.306.41-.337.869-.543,1.375-.62.388-.058.767-.035,1.139.071.371.098.712.265,1.022.501.317.227.583.515.798.863.213.34.356.727.43,1.161.016.159-.028.299-.131.42-.103.121-.234.193-.392.217l-4.616.696-.437-.966,4.461-.672-.193.247-.045-.297c-.057-.274-.185-.502-.382-.682-.198-.189-.428-.32-.69-.394-.263-.081-.529-.102-.798-.061-.237.036-.461.11-.67.222-.203.104-.379.251-.528.444-.141.191-.242.433-.303.725-.054.283-.051.627.01,1.03.066.435.214.801.445,1.098.231.297.514.513.85.649.335.127.688.163,1.06.107.293-.044.53-.108.711-.192.18-.092.327-.191.441-.297.113-.107.212-.206.295-.3.108-.089.221-.142.34-.16.142-.022.269.012.379.1.109.081.174.188.194.323.026.174-.037.345-.189.514-.183.238-.452.465-.808.68-.348.214-.728.352-1.139.415Zm3.704-1.676c-.088-.1-.139-.221-.152-.365-.015-.152.049-.291.192-.417.1-.088.211-.133.332-.135.128-.011.255.03.383.124.258.212.533.369.823.471.298.1.641.121,1.029.063.157-.032.316-.08.476-.145.159-.072.289-.173.391-.302.101-.136.134-.315.101-.537-.03-.197-.117-.346-.261-.446-.145-.099-.325-.169-.541-.209-.218-.048-.45-.086-.697-.114-.264-.033-.533-.073-.807-.121-.266-.048-.512-.125-.738-.228-.227-.111-.425-.268-.593-.469-.16-.202-.264-.466-.313-.79-.056-.372-.002-.708.163-1.008.173-.301.414-.552.724-.752.318-.202.674-.332,1.07-.392.229-.035.475-.039.738-.014.261.017.52.071.777.162.256.091.487.226.692.405.095.091.157.207.186.348.037.14-.007.276-.133.409-.083.093-.192.146-.328.158-.136.013-.253-.014-.352-.08-.179-.167-.395-.284-.648-.351-.254-.075-.531-.09-.832-.045-.15.023-.305.07-.464.143-.152.063-.275.159-.369.286-.094.128-.125.298-.093.512.03.197.117.346.262.446.152.098.341.171.567.218.226.047.47.083.732.108.255.026.507.065.758.116.258.05.493.132.704.246.218.104.403.258.555.462.159.194.263.458.313.79.059.388-.006.737-.194,1.049-.181.302-.435.551-.761.746-.319.193-.668.319-1.048.376-.451.068-.914.057-1.388-.033-.468-.1-.887-.328-1.256-.685Zm8.606-6.795c.553-.083,1.065-.019,1.534.193.476.212.878.539,1.204.984.324.436.535.971.63,1.604.095.633.054,1.213-.126,1.742-.18.521-.463.952-.848,1.293-.386.341-.847.553-1.385.634-.301.045-.593.04-.876-.014s-.539-.141-.768-.26c-.229-.128-.424-.268-.585-.422-.153-.155-.256-.305-.311-.45l.298-.203.499,3.311c.026.174-.012.325-.114.454-.093.135-.222.215-.388.24-.174.026-.326-.011-.454-.113-.128-.094-.205-.228-.231-.403l-1.12-7.427c-.025-.167.009-.317.102-.453.092-.135.226-.216.4-.242.166-.025.313.013.442.115.137.101.217.234.243.401l.123.818-.206-.078c0-.154.053-.319.156-.497.101-.185.236-.363.405-.534.176-.172.38-.32.612-.444.24-.126.495-.208.764-.249Zm.034,1.111c-.38.058-.698.203-.954.435-.25.224-.429.506-.54.846-.11.341-.135.717-.073,1.128.061.403.196.759.404,1.068.207.3.464.524.769.672.312.139.658.18,1.038.123.372-.056.682-.196.932-.42.248-.231.427-.521.536-.869.116-.358.144-.738.083-1.141-.061-.404-.198-.751-.412-1.043-.207-.3-.463-.52-.767-.661-.306-.148-.645-.194-1.016-.138Zm10.895.542c.096.632.042,1.215-.161,1.747-.204.524-.522.961-.955,1.309-.433.349-.946.568-1.539.657-.594.09-1.149.032-1.665-.174-.516-.205-.953-.527-1.311-.967-.351-.449-.574-.989-.669-1.622-.097-.641-.043-1.223.161-1.748.211-.533.532-.974.965-1.323.432-.356.944-.579,1.538-.668.593-.09,1.149-.028,1.666.185.516.206.95.532,1.301.981.35.441.573.982.669,1.623Zm-1.186.178c-.066-.435-.21-.797-.431-1.087-.223-.299-.499-.516-.827-.652-.321-.146-.664-.192-1.028-.137-.363.055-.681.2-.953.435-.274.228-.473.517-.598.867-.126.343-.156.732-.091,1.167.063.419.207.778.429,1.076.223.298.499.515.827.652.328.136.674.177,1.038.122.364-.054.678-.195.944-.421.273-.227.472-.516.597-.867.125-.35.156-.735.093-1.155Zm5.49-4.165c.562-.085,1.015-.032,1.359.159.343.183.604.463.782.841.185.368.314.794.387,1.277l.48,3.18c.026.174-.011.329-.112.465-.094.128-.224.204-.39.229-.174.026-.325-.007-.453-.101-.128-.102-.206-.24-.232-.414l-.478-3.169c-.043-.284-.12-.532-.233-.741-.114-.218-.28-.379-.498-.483-.211-.114-.491-.145-.839-.092-.324.049-.598.163-.822.342-.225.172-.391.383-.499.634-.101.242-.13.505-.087.79l.478,3.168c.026.174-.011.329-.112.466-.094.127-.224.203-.39.228-.174.027-.325-.007-.453-.101-.128-.102-.206-.24-.232-.414l-.759-5.031c-.026-.174.008-.325.102-.453.093-.135.226-.216.4-.242.166-.025.314.013.443.115.135.093.216.227.242.401l.1.664-.196.151c.03-.182.098-.371.206-.565.115-.203.26-.395.436-.575.173-.188.376-.344.609-.468.23-.132.484-.219.761-.261Zm4.469,4.86c-.088-.1-.139-.222-.152-.365-.015-.152.049-.291.192-.418.1-.088.21-.133.331-.135.128-.011.256.031.383.125.259.211.533.368.824.47.298.101.641.122,1.029.063.157-.031.315-.08.475-.144.159-.073.29-.173.392-.302.1-.137.134-.316.101-.537-.03-.198-.117-.346-.262-.446-.144-.1-.325-.169-.541-.21-.218-.048-.45-.086-.697-.113-.264-.033-.533-.073-.807-.121-.266-.049-.512-.125-.738-.228-.227-.112-.425-.268-.593-.469-.16-.203-.264-.466-.313-.79-.056-.372-.002-.708.164-1.008.173-.301.414-.552.723-.752.318-.202.674-.333,1.07-.392.229-.035.475-.04.738-.015.262.018.521.072.777.162.256.091.487.226.692.406.095.091.157.207.186.348.037.14-.007.276-.132.408-.083.094-.193.146-.328.159-.136.012-.253-.015-.352-.081-.179-.167-.395-.284-.648-.351-.254-.075-.531-.09-.832-.044-.15.022-.305.07-.464.142-.152.064-.275.159-.369.287-.094.127-.125.298-.093.511.03.198.117.347.261.446.153.099.342.171.567.218.226.047.47.083.733.108.254.026.507.065.757.116.259.05.494.132.705.246.218.105.403.259.555.463.159.194.263.457.313.79.059.387-.006.737-.193,1.048-.181.303-.435.551-.762.746-.318.194-.668.319-1.047.377-.451.068-.914.056-1.389-.034-.468-.099-.887-.327-1.256-.684Zm7.443-.746c.026.174-.008.328-.1.464-.094.127-.228.204-.402.23-.167.025-.317-.009-.453-.101-.128-.102-.206-.24-.232-.414l-.766-5.079c-.026-.174.008-.325.102-.452.1-.137.234-.218.4-.243.174-.026.325.012.454.114.127.094.204.228.231.402l.766,5.079Zm-1.581-6.376c-.229.035-.401.02-.516-.043-.116-.072-.189-.207-.219-.404l-.029-.19c-.029-.198.005-.345.104-.441.099-.095.259-.16.48-.193.238-.036.414-.018.53.053.115.064.187.191.215.38l.029.19c.031.206-.003.357-.102.452-.091.095-.255.16-.492.196Zm2.697.382c.119-.018.235-.003.347.045.12.046.214.129.28.249l2.513,4.026-.21.141,1.223-4.687c.071-.278.23-.431.477-.46.158-.024.296.008.415.095.125.078.199.197.223.355.007.047.007.1,0,.158-.009.05-.022.1-.038.151l-1.489,5.419c-.067.252-.218.405-.453.456-.116.034-.238.028-.367-.017-.121-.055-.224-.144-.307-.269l-3.009-4.741c-.02-.029-.042-.066-.065-.111-.024-.053-.042-.115-.052-.186-.018-.119.015-.246.1-.38.093-.135.23-.216.412-.244Zm10.448,4.99c-.656.099-1.246.05-1.769-.146-.525-.204-.957-.523-1.298-.957-.334-.443-.547-.973-.64-1.59-.105-.697-.056-1.311.147-1.843.209-.541.52-.977.932-1.306.41-.337.868-.543,1.374-.62.388-.058.768-.034,1.14.071.371.098.711.265,1.022.502.317.227.583.514.798.862.213.34.356.727.429,1.161.016.159-.027.3-.13.42-.103.121-.234.193-.392.217l-4.616.696-.437-.965,4.461-.673-.193.247-.044-.296c-.058-.275-.185-.502-.383-.683-.198-.188-.428-.32-.69-.393-.263-.082-.529-.103-.798-.062-.237.036-.461.11-.67.222-.203.104-.379.252-.528.444-.141.191-.242.433-.303.725-.055.284-.051.627.009,1.031.066.435.214.801.445,1.097.231.297.514.514.85.649.335.127.688.163,1.06.107.293-.044.53-.108.711-.192.181-.092.328-.191.441-.297.113-.106.212-.206.295-.299.108-.09.221-.143.34-.161.142-.021.268.012.379.101.109.08.174.188.194.322.026.174-.037.346-.189.514-.183.238-.452.465-.808.68-.348.215-.728.353-1.139.415Z"/>
    <path class="cls-1" d="m47.439,159.2l3.145,1.822c.085.05.18.081.278.091.098.009.198-.003.29-.037.094-.033.18-.085.251-.154.072-.069.128-.152.164-.245l3.259-8.193"/>
    <path class="cls-1" d="m52.683,166.11c4.915-.741,8.298-5.326,7.557-10.241s-5.327-8.299-10.242-7.558c-4.915.742-8.298,5.327-7.557,10.242.741,4.915,5.327,8.298,10.242,7.557Z"/>
    <path d="m86.79,184.821c.174-.026.321.012.442.115.12.095.192.23.219.404l.678,4.497c.095.633.042,1.22-.159,1.76-.202.54-.522.989-.962,1.346-.441.35-.978.572-1.61.668-.625.094-1.203.04-1.736-.163-.525-.212-.968-.546-1.328-1.001-.352-.457-.576-1.002-.671-1.634l-.678-4.498c-.026-.174.012-.325.113-.454.101-.136.246-.219.436-.247.15-.023.294.016.43.117.143.091.228.224.254.398l.678,4.497c.063.42.21.774.439,1.063.236.28.523.487.858.623.335.127.676.165,1.024.112.38-.057.715-.197,1.005-.418.289-.23.505-.513.648-.85.15-.347.194-.729.13-1.149l-.678-4.497c-.026-.174,0-.323.078-.449.085-.134.215-.214.389-.24Zm8.188-1.247c.158-.024.298.015.418.119.128.094.201.208.222.342.019.127-.006.256-.075.388l-1.989,3.71-.818-.835,1.81-3.368c.106-.21.25-.329.432-.356Zm-5.413.804c.19-.029.364.03.524.176l6.436,6.383c.103.09.164.202.185.337.028.189-.017.346-.136.469-.119.123-.246.195-.38.215-.19.029-.361-.03-.512-.177l-6.446-6.37c-.104-.098-.165-.21-.184-.337-.026-.174.016-.326.125-.455.109-.138.238-.218.389-.241Zm1.182,8.402c-.15.022-.285-.01-.403-.097-.119-.096-.189-.211-.21-.345-.02-.134.007-.276.081-.425l2.002-3.785.798.863-1.823,3.442c-.099.201-.247.317-.445.347Zm13.524-10.584c.578-.087,1.105-.053,1.581.102.475.146.889.391,1.24.735.358.334.65.743.877,1.227.225.476.38.994.465,1.556.116.767.087,1.488-.087,2.161-.175.665-.495,1.224-.961,1.674-.466.451-1.087.734-1.862.851l-2.895.437c-.166.025-.317-.009-.452-.102-.137-.101-.218-.238-.245-.412l-1.07-7.096c-.026-.174.012-.325.114-.454.101-.136.234-.217.4-.242l2.895-.437Zm.963,7.185c.561-.085.995-.292,1.302-.621.306-.329.504-.732.594-1.206.097-.484.105-.999.022-1.545-.061-.403-.165-.776-.314-1.117-.142-.351-.333-.65-.572-.897-.233-.256-.511-.441-.836-.554-.318-.122-.686-.151-1.105-.088l-2.243.338.091-.122.943,6.253-.089-.108,2.207-.333Zm8.408.018c-.657.099-1.246.051-1.77-.145-.524-.205-.956-.524-1.297-.958-.334-.443-.547-.973-.64-1.59-.105-.696-.056-1.31.147-1.843.209-.541.52-.976.931-1.305.411-.337.869-.544,1.375-.62.388-.059.768-.035,1.14.071.37.098.711.265,1.022.501.317.227.583.515.797.863.214.34.357.727.43,1.161.016.159-.027.299-.13.42-.104.12-.234.193-.392.217l-4.616.696-.437-.966,4.461-.673-.193.248-.045-.297c-.057-.274-.185-.502-.382-.682-.198-.189-.428-.32-.69-.394-.263-.082-.529-.102-.798-.062-.237.036-.461.11-.67.223-.203.103-.379.251-.528.444-.141.191-.242.433-.303.725-.055.283-.052.627.009,1.03.066.435.214.801.445,1.098.231.297.514.513.85.648.335.128.688.164,1.06.108.293-.045.53-.109.711-.193.181-.092.328-.191.441-.297.113-.106.212-.206.295-.299.108-.089.221-.143.339-.16.143-.022.269.012.38.1.109.081.174.188.194.323.026.174-.037.345-.189.514-.183.238-.452.464-.808.68-.348.214-.728.352-1.139.414Zm3.704-1.675c-.088-.1-.139-.222-.152-.365-.015-.152.049-.291.192-.418.1-.087.21-.132.331-.135.128-.011.256.031.383.125.259.212.533.368.823.47.299.101.642.122,1.029.064.157-.032.316-.08.476-.145.159-.073.29-.173.392-.302.1-.136.134-.315.101-.537-.03-.198-.117-.346-.262-.446-.144-.099-.325-.169-.541-.209-.218-.049-.45-.086-.697-.114-.264-.033-.533-.073-.807-.121-.266-.049-.512-.125-.738-.228-.227-.112-.425-.268-.593-.469-.16-.203-.264-.466-.313-.79-.056-.372-.002-.708.163-1.008.173-.301.415-.552.724-.752.318-.202.674-.333,1.07-.392.229-.035.475-.04.738-.014.261.017.52.071.777.162.256.09.487.225.692.405.095.091.157.207.186.348.037.14-.007.276-.133.408-.083.094-.192.147-.328.159-.135.012-.253-.014-.352-.08-.178-.168-.394-.285-.647-.352-.254-.075-.532-.09-.832-.044-.15.022-.305.07-.464.143-.152.063-.275.158-.369.286-.094.127-.125.298-.093.511.03.198.117.347.261.446.153.099.342.171.567.218.226.047.47.083.732.108.255.027.508.065.758.117.259.05.493.132.705.245.218.105.403.259.555.463.159.194.263.458.313.79.059.387-.006.737-.194,1.048-.18.303-.434.551-.761.746-.319.194-.668.319-1.047.377-.451.068-.914.057-1.389-.034-.468-.099-.887-.327-1.256-.684Zm7.442-.746c.027.174-.007.329-.1.464-.094.127-.228.204-.402.23-.166.026-.316-.008-.452-.101-.128-.102-.206-.24-.232-.414l-.766-5.079c-.026-.174.008-.325.102-.452.1-.137.234-.217.4-.242.174-.027.325.011.454.113.127.094.204.228.23.402l.766,5.079Zm-1.58-6.376c-.23.035-.402.02-.516-.043-.116-.072-.189-.206-.219-.404l-.029-.19c-.03-.198.005-.345.104-.44.099-.096.259-.161.48-.194.238-.036.414-.018.53.053.115.064.187.191.215.381l.029.189c.031.206-.003.357-.102.453-.091.094-.255.159-.492.195Zm5.141-.071c.34-.052.661-.043.962.024.302.068.569.174.8.317.239.134.431.283.578.447.146.164.229.313.249.447l-.271.053-.143-.949c-.025-.166.009-.317.102-.452.092-.135.226-.216.4-.242.174-.027.325.011.454.113.127.094.204.228.23.402l.79,5.233c.101.672.041,1.24-.181,1.702-.22.47-.552.84-.997,1.109-.437.268-.936.445-1.498.529-.198.03-.435.038-.713.023-.276-.007-.534-.029-.774-.065-.232-.038-.397-.086-.495-.144-.196-.068-.336-.16-.418-.277-.074-.118-.094-.245-.057-.38.053-.185.143-.308.272-.368.128-.06.284-.071.468-.034.083.011.212.036.387.075.176.038.37.065.583.082.214.024.412.022.594-.005.633-.095,1.086-.313,1.358-.654.28-.341.382-.765.306-1.272l-.162-1.068.144.064c.001.17-.049.351-.149.544-.094.184-.229.362-.405.534-.176.173-.388.326-.634.46-.24.125-.495.208-.764.249-.561.085-1.085.022-1.569-.188-.486-.218-.896-.549-1.23-.992-.335-.451-.55-.993-.646-1.626-.095-.633-.049-1.21.14-1.732.187-.53.477-.966.87-1.308.4-.352.873-.569,1.419-.651Zm.343,1.065c-.388.058-.714.204-.978.438-.264.234-.455.526-.572.875-.117.35-.145.73-.083,1.141.062.412.201.767.416,1.066.215.3.483.522.805.668.321.146.675.189,1.063.131.388-.059.714-.201.979-.427.264-.234.455-.526.572-.875.116-.357.143-.742.081-1.153-.062-.411-.2-.767-.416-1.066-.216-.307-.484-.53-.804-.668-.321-.145-.676-.189-1.063-.13Zm8.02-2.327c.562-.084,1.015-.031,1.359.16.343.182.604.463.782.84.185.369.314.794.387,1.277l.479,3.18c.027.174-.011.329-.111.466-.094.127-.224.204-.391.229-.174.026-.324-.008-.452-.102-.128-.102-.206-.24-.232-.414l-.478-3.168c-.043-.285-.121-.532-.233-.742-.114-.217-.28-.378-.498-.483-.211-.114-.491-.144-.839-.092-.324.049-.598.163-.822.343-.225.171-.391.382-.499.633-.101.242-.13.505-.087.79l.478,3.168c.026.174-.011.329-.112.466-.094.127-.224.204-.39.229-.174.026-.325-.008-.453-.102-.128-.102-.206-.24-.232-.414l-.759-5.031c-.026-.174.008-.325.102-.452.093-.136.226-.216.4-.243.166-.025.314.014.442.116.136.093.217.226.243.4l.1.664-.196.151c.029-.182.098-.37.206-.565.115-.203.26-.395.435-.575.174-.188.377-.344.609-.468.231-.132.485-.219.762-.261Z"/>
    <path class="cls-1" d="m52.808,194.797l3.145,1.822c.085.051.18.082.278.091.098.01.197-.003.29-.037.094-.032.18-.085.251-.154.072-.069.128-.152.165-.244l3.259-8.194"/>
    <path class="cls-1" d="m58.051,201.708c4.915-.742,8.298-5.327,7.557-10.242s-5.327-8.298-10.242-7.557c-4.915.741-8.298,5.326-7.557,10.241.741,4.915,5.327,8.299,10.242,7.558Z"/>
    <path d="m89.61,220.815c.419-.063.824-.007,1.215.169.389.167.72.429.992.784.272.356.445.775.517,1.257.073.483.032.938-.122,1.366-.155.42-.393.775-.713,1.066-.321.283-.692.456-1.111.52l-2.29.345.066-.204.412,2.729c.026.174-.007.329-.1.464-.086.126-.216.202-.39.229-.166.025-.313-.01-.44-.104-.121-.103-.194-.241-.221-.416l-1.07-7.095c-.026-.174.012-.326.114-.454.101-.137.234-.218.4-.243l2.741-.413Zm.607,4.022c.206-.031.382-.126.527-.285.154-.161.265-.36.335-.597.077-.238.096-.488.057-.749s-.131-.49-.273-.687c-.135-.198-.299-.347-.492-.447-.186-.11-.382-.149-.588-.118l-2.314.349.092-.196.485,3.216-.13-.138,2.302-.348Zm7.342,3.395c-.657.099-1.246.051-1.77-.145-.524-.204-.957-.524-1.297-.958-.334-.443-.547-.973-.64-1.59-.105-.696-.056-1.31.147-1.842.21-.542.52-.977.932-1.306.41-.337.869-.544,1.375-.62.388-.058.768-.035,1.14.071.37.098.711.265,1.022.501.317.227.583.515.797.863.214.34.357.727.43,1.161.016.159-.027.299-.13.42-.104.121-.234.193-.392.217l-4.616.696-.437-.966,4.461-.673-.193.248-.045-.297c-.057-.274-.185-.502-.382-.682-.198-.189-.428-.32-.69-.394-.263-.081-.529-.102-.798-.061-.237.035-.461.11-.67.222-.203.103-.379.251-.528.444-.141.191-.242.433-.303.725-.054.283-.051.627.01,1.03.066.435.214.801.445,1.098.231.297.514.513.85.649.335.127.688.163,1.06.107.293-.044.53-.109.711-.193.181-.091.327-.19.441-.297.113-.106.212-.205.295-.299.108-.089.221-.142.339-.16.143-.022.269.012.38.1.109.081.174.188.194.323.026.174-.037.345-.189.514-.183.238-.452.464-.808.68-.348.214-.728.352-1.139.414Zm4.812-.847c-.174.027-.325-.007-.452-.101-.129-.102-.206-.24-.233-.414l-.759-5.031c-.026-.175.008-.325.102-.453.093-.135.226-.216.401-.242.166-.025.313.013.442.115.135.093.216.227.242.401l.2,1.329-.195-.493c.03-.231.094-.451.192-.66.105-.21.239-.4.399-.57.161-.17.346-.311.555-.423.218-.114.449-.189.694-.226.206-.031.392-.003.559.085.167.088.263.215.288.382.032.213.001.38-.094.499-.097.112-.212.178-.347.198-.118.018-.237.012-.354-.019-.12-.039-.254-.047-.405-.024-.166.025-.329.094-.49.207-.161.114-.3.268-.416.463-.117.188-.202.403-.254.646-.045.241-.046.504-.003.789l.43,2.848c.026.174-.011.329-.112.466-.094.127-.224.203-.39.228Zm6.188-9.901c.15-.023.308-.026.472-.011.164.016.305.063.422.143.124.07.197.184.221.343.024.158-.004.296-.083.413-.081.109-.184.173-.311.192-.079.012-.188.012-.327,0-.141-.019-.278-.019-.413.002-.182.027-.321.093-.419.196-.099.096-.162.211-.191.345-.029.125-.035.248-.017.366l.952,6.313c.026.174-.011.329-.112.466-.094.127-.224.204-.39.229-.174.026-.325-.008-.453-.102-.128-.102-.206-.24-.232-.414l-.95-6.301c-.082-.546.028-1.019.332-1.421.311-.403.811-.657,1.499-.76Zm.635,2.598c.158-.024.296.008.414.095.119.088.19.21.214.369.024.158-.008.296-.095.414-.088.119-.211.19-.369.214l-3.073.463c-.15.023-.289-.009-.415-.095-.118-.087-.189-.21-.213-.368-.024-.158.008-.297.095-.415.095-.12.218-.191.368-.213l3.074-.464Zm8.023,1.872c.096.633.042,1.216-.161,1.748-.204.524-.522.961-.955,1.309-.433.349-.946.568-1.539.657-.594.089-1.149.032-1.665-.174-.516-.205-.953-.527-1.311-.967-.351-.449-.574-.989-.669-1.622-.097-.641-.043-1.224.161-1.748.211-.533.533-.974.965-1.323.432-.356.945-.579,1.538-.668.593-.09,1.149-.028,1.666.185.517.205.95.532,1.301.981.35.441.573.982.669,1.622Zm-1.186.179c-.066-.435-.209-.797-.431-1.088-.223-.298-.499-.515-.827-.652-.321-.145-.664-.191-1.028-.136-.363.055-.681.2-.953.435-.273.228-.473.517-.598.867-.126.343-.156.732-.091,1.167.064.419.207.778.43,1.076.222.298.498.515.826.652.328.136.674.177,1.038.122.364-.055.678-.195.944-.421.273-.227.472-.516.597-.867.125-.35.156-.735.093-1.155Zm3.831,2.614c-.174.027-.325-.007-.452-.101-.129-.102-.207-.24-.233-.414l-.759-5.032c-.026-.174.008-.324.102-.452.093-.135.226-.216.4-.242.167-.025.314.013.443.115.135.093.216.227.242.401l.2,1.329-.195-.493c.03-.231.094-.451.192-.66.105-.21.239-.4.399-.57.16-.17.345-.311.555-.423.218-.114.449-.189.694-.226.206-.031.392-.003.559.085.167.088.263.215.288.382.032.213,0,.38-.094.499-.097.112-.212.178-.347.198-.118.018-.237.012-.355-.019-.119-.039-.253-.047-.404-.024-.166.025-.329.094-.49.207-.161.114-.3.268-.416.463-.117.188-.202.403-.254.646-.045.241-.046.504-.003.789l.43,2.848c.026.174-.011.329-.112.466-.094.127-.224.203-.39.228Zm6.778-7.515c.586-.088,1.059-.01,1.419.235.36.237.628.593.805,1.068l-.199-.03.054-.203c.072-.221.195-.45.37-.687.181-.245.408-.458.681-.636.271-.187.573-.305.905-.355.546-.083.987-.028,1.323.164.335.184.592.465.77.843.178.37.302.796.375,1.278l.475,3.145c.026.174-.008.328-.1.464-.094.127-.228.204-.402.23-.167.025-.317-.009-.453-.101-.128-.102-.206-.24-.232-.414l-.473-3.133c-.041-.277-.119-.524-.233-.741-.106-.219-.263-.381-.474-.487-.203-.115-.467-.148-.791-.099-.309.046-.575.159-.799.339-.217.17-.375.38-.475.63-.1.249-.129.513-.087.789l.472,3.133c.027.174-.007.329-.1.464-.094.127-.228.204-.402.231-.174.026-.325-.008-.452-.102-.129-.102-.206-.24-.232-.414l-.475-3.145c-.041-.276-.119-.524-.233-.741-.106-.219-.26-.382-.462-.489-.202-.107-.465-.136-.79-.087-.308.047-.571.155-.788.325-.217.171-.375.381-.475.63-.092.249-.117.512-.076.788l.475,3.145c.026.174-.011.329-.112.466-.094.127-.224.203-.39.228-.174.027-.325-.007-.453-.101-.128-.102-.206-.24-.232-.414l-.759-5.031c-.026-.174.008-.325.102-.453.093-.135.226-.216.4-.242.166-.025.314.013.442.115.136.093.217.227.243.401l.105.7-.205.164c.029-.182.093-.374.192-.575.099-.201.232-.391.4-.57.175-.18.374-.335.597-.466.223-.131.473-.217.749-.259Zm13.125-1.967c.174-.026.326.012.454.113.128.095.204.229.231.403l.773,5.126c.026.174-.007.328-.1.464-.094.127-.228.204-.402.23-.166.025-.317-.009-.452-.101-.129-.102-.206-.24-.233-.414l-.129-.855.255-.002c.021.143-.014.31-.106.502-.085.19-.214.384-.386.58-.174.188-.387.357-.639.509-.254.143-.535.238-.843.285-.546.082-1.058.018-1.534-.194-.478-.219-.881-.555-1.208-1.007-.327-.452-.538-.991-.632-1.616-.097-.64-.055-1.221.125-1.742.18-.528.462-.963.847-1.305.394-.342.855-.553,1.385-.633.34-.052.661-.043.963.024.309.067.584.171.824.313.239.142.43.303.57.484.147.172.234.345.26.519l-.362.091-.163-1.079c-.025-.167.009-.317.102-.453.101-.136.234-.217.4-.242Zm-1.612,5.728c.372-.056.686-.2.942-.433.257-.233.439-.523.549-.871.108-.357.131-.736.07-1.14-.062-.411-.196-.767-.403-1.067-.207-.301-.468-.525-.781-.672-.314-.146-.656-.192-1.028-.136-.364.055-.674.199-.93.432-.248.231-.431.522-.548.871-.109.348-.133.728-.071,1.14.061.403.195.759.404,1.067.215.3.475.523.781.671.313.147.652.193,1.015.138Zm7.314-6.637c.561-.084,1.014-.031,1.359.16.343.182.603.463.782.84.185.369.314.794.386,1.277l.48,3.18c.026.174-.011.329-.112.466-.094.127-.224.204-.39.229-.174.026-.325-.008-.452-.102-.129-.102-.206-.24-.233-.414l-.477-3.168c-.043-.285-.121-.532-.234-.742-.113-.217-.279-.378-.497-.483-.212-.114-.491-.144-.839-.092-.325.049-.599.163-.822.343-.225.171-.392.382-.5.633-.101.242-.13.505-.087.79l.478,3.168c.026.174-.011.329-.112.466-.094.127-.224.204-.39.229-.174.026-.325-.008-.452-.102-.129-.102-.206-.24-.233-.414l-.758-5.031c-.027-.174.007-.325.101-.452.093-.136.227-.216.401-.243.166-.025.313.014.442.116.135.093.216.226.242.4l.1.665-.195.15c.029-.182.098-.37.206-.565.115-.203.26-.395.435-.575.174-.188.377-.344.609-.468.231-.132.485-.219.762-.261Zm6.785-1.023c.427-.064.814-.074,1.161-.029.345.037.621.124.828.263.214.13.337.301.369.515.02.134,0,.267-.061.397-.063.123-.173.196-.331.22-.111.017-.209.011-.294-.016-.077-.029-.152-.066-.223-.112-.072-.046-.159-.089-.263-.13-.094-.035-.23-.055-.409-.06-.171-.007-.324,0-.458.021-.419.063-.769.213-1.049.449-.272.235-.47.528-.595.879-.118.349-.145.729-.083,1.141.062.411.2.766.415,1.066.223.298.495.52.817.665.329.145.691.187,1.087.128.237-.036.429-.081.574-.136.145-.062.268-.129.37-.201.108-.089.196-.175.265-.258.075-.093.188-.15.338-.173.174-.026.313.01.416.107.111.089.178.212.202.37.026.175-.055.361-.244.559-.181.189-.439.362-.771.517-.333.155-.709.264-1.128.328-.617.093-1.176.032-1.678-.184-.494-.217-.904-.551-1.231-1.004-.32-.453-.526-.988-.619-1.605-.094-.625-.047-1.199.141-1.721.187-.529.493-.972.917-1.327.423-.355.936-.578,1.537-.669Zm7.513,5.517c-.656.099-1.246.051-1.769-.145-.524-.205-.957-.524-1.297-.958-.334-.443-.548-.973-.641-1.59-.105-.696-.056-1.31.147-1.842.21-.542.52-.977.932-1.306.41-.337.869-.544,1.375-.62.387-.058.767-.035,1.139.071.371.098.712.265,1.022.501.318.227.584.515.798.863.213.34.356.727.43,1.161.016.159-.028.299-.131.42s-.234.193-.392.217l-4.616.696-.437-.966,4.462-.673-.193.248-.045-.297c-.058-.274-.185-.502-.382-.682-.199-.189-.429-.32-.691-.394-.263-.082-.529-.102-.798-.061-.237.035-.46.109-.67.222-.203.103-.379.251-.528.444-.141.191-.242.433-.303.725-.054.283-.051.627.01,1.03.065.435.214.801.444,1.098.231.297.515.513.851.648.334.128.688.164,1.059.108.293-.045.53-.109.712-.193.18-.092.327-.191.44-.297.114-.106.212-.206.295-.299.108-.089.221-.143.34-.16.142-.022.269.012.379.1.109.081.174.188.194.323.027.174-.036.345-.189.514-.183.238-.452.464-.808.68-.348.214-.727.352-1.139.414Z"/>
    <path class="cls-1" d="m58.177,230.394l3.145,1.822c.085.051.18.082.278.092.098.009.198-.004.29-.037.094-.033.18-.086.251-.154.072-.069.128-.153.165-.245l3.259-8.193"/>
    <path class="cls-1" d="m63.42,237.305c4.915-.741,8.298-5.327,7.557-10.242-.741-4.915-5.327-8.298-10.242-7.557-4.915.742-8.298,5.327-7.557,10.242.741,4.915,5.327,8.298,10.242,7.557Z"/>
  </g>
  <path class="cls-4" d="m398.429,63.604c.492,35.616-27.982,64.886-63.598,65.378-35.615.491-64.886-27.982-65.378-63.598C268.962,29.769,297.435.498,333.051.006c35.616-.492,64.886,27.982,65.378,63.598Zm-106.405,1.469c.32,23.15,19.346,41.658,42.496,41.338s41.658-19.346,41.338-42.496c-.319-23.15-19.345-41.658-42.496-41.338-23.15.32-41.658,19.346-41.338,42.496Z"/>
  <path class="cls-7" d="m333.051.006c11.034-.152,21.922,2.529,31.624,7.787,9.701,5.258,17.891,12.918,23.786,22.246,5.895,9.328,9.298,20.013,9.883,31.032.586,11.019-1.666,22.005-6.54,31.905-4.873,9.901-12.205,18.384-21.295,24.642-9.09,6.257-19.633,10.076-30.621,11.094-10.988,1.018-22.053-.801-32.137-5.282-10.084-4.481-18.85-11.475-25.458-20.312l18.077-13.519c4.295,5.744,9.993,10.29,16.548,13.203,6.554,2.913,13.747,4.095,20.889,3.433,7.142-.661,13.995-3.144,19.903-7.211,5.908-4.067,10.674-9.582,13.842-16.017,3.168-6.435,4.632-13.576,4.251-20.738-.38-7.163-2.592-14.108-6.424-20.171s-9.155-11.042-15.461-14.46c-6.306-3.418-13.384-5.161-20.556-5.062L333.051.006Z"/>
  <path class="cls-5" d="m317.092,74.234c-.864,0-1.648-.176-2.352-.528-.688-.368-1.28-.864-1.776-1.488-.48-.624-.856-1.328-1.128-2.112-.256-.784-.384-1.592-.384-2.424,0-.544.056-1.2.168-1.968.128-.768.344-1.576.648-2.424.304-.848.728-1.672,1.272-2.472.544-.8,1.232-1.52,2.064-2.16.848-.64,1.88-1.128,3.096-1.464.192-.048.376-.072.552-.072.368,0,.696.096.984.288.304.192.456.544.456,1.056,0,.352-.12.664-.36.936-.224.256-.528.44-.912.552-.544.16-1.088.4-1.632.72-.528.304-1.024.68-1.488,1.128-.448.448-.84.96-1.176,1.536-.32.56-.552,1.168-.696,1.824l-.648-.024c.224-.272.496-.56.816-.864.336-.32.736-.592,1.2-.816.48-.24,1.04-.36,1.68-.36.624,0,1.24.144,1.848.432.624.288,1.184.688,1.68,1.2.512.496.92,1.088,1.224,1.776.304.672.456,1.392.456,2.16,0,1.024-.256,1.96-.768,2.808-.496.848-1.168,1.52-2.016,2.016-.832.496-1.768.744-2.808.744Zm0-2.64c.512,0,.968-.128,1.368-.384.416-.256.744-.608.984-1.056.24-.448.36-.944.36-1.488,0-.56-.12-1.056-.36-1.488-.24-.448-.568-.8-.984-1.056-.4-.256-.856-.384-1.368-.384s-.976.128-1.392.384c-.4.256-.72.608-.96,1.056-.24.432-.36.928-.36,1.488,0,.544.12,1.04.36,1.488.24.448.56.8.96,1.056.416.256.88.384,1.392.384Zm12.69,2.64c-.592,0-1.224-.088-1.896-.264-.672-.192-1.224-.464-1.656-.816-.208-.176-.376-.4-.504-.672-.112-.288-.168-.56-.168-.816,0-.272.112-.528.336-.768.24-.24.576-.36,1.008-.36.288,0,.648.152,1.08.456.256.16.536.304.84.432.304.128.616.192.936.192.768,0,1.432-.136,1.992-.408.56-.288.992-.68,1.296-1.176.304-.496.456-1.08.456-1.752,0-.608-.144-1.128-.432-1.56-.272-.432-.64-.768-1.104-1.008-.448-.24-.936-.36-1.464-.36-.496,0-.928.08-1.296.24-.368.16-.704.328-1.008.504-.304.16-.608.24-.912.24-.528,0-.92-.112-1.176-.336-.256-.24-.416-.52-.48-.84-.064-.32-.08-.608-.048-.864l.744-5.832c.064-.336.224-.608.48-.816.272-.224.592-.336.96-.336h6.936c.384,0,.704.128.96.384.256.256.384.576.384.96,0,.368-.128.68-.384.936-.256.24-.576.36-.96.36h-6.192l.264-.216-.648,4.872-.312-.912c.096-.16.304-.312.624-.456.32-.144.688-.264,1.104-.36.416-.112.824-.168,1.224-.168,1.072,0,2.032.248,2.88.744.848.48,1.512,1.144,1.992,1.992.496.832.744,1.776.744,2.832,0,1.2-.272,2.248-.816,3.144-.544.896-1.312,1.592-2.304,2.088-.976.48-2.136.72-3.48.72Zm13.18-7.92c-.768,0-1.448-.208-2.04-.624-.592-.416-1.056-.976-1.392-1.68-.336-.704-.504-1.488-.504-2.352,0-.88.168-1.672.504-2.376.336-.704.8-1.264,1.392-1.68.592-.416,1.272-.624,2.04-.624.784,0,1.464.208,2.04.624.592.416,1.048.976,1.368,1.68.336.704.504,1.496.504,2.376,0,.864-.176,1.648-.528,2.352-.352.704-.824,1.264-1.416,1.68-.576.416-1.232.624-1.968.624Zm0-2.136c.48,0,.848-.24,1.104-.72.272-.48.408-1.08.408-1.8s-.128-1.32-.384-1.8c-.256-.48-.632-.72-1.128-.72-.48,0-.856.24-1.128.72-.272.48-.408,1.08-.408,1.8s.128,1.32.384,1.8c.272.48.656.72,1.152.72Zm10.296,10.056c-.736,0-1.4-.208-1.992-.624s-1.064-.976-1.416-1.68c-.352-.704-.528-1.488-.528-2.352,0-.88.168-1.672.504-2.376s.8-1.264,1.392-1.68,1.272-.624,2.04-.624c.784,0,1.464.208,2.04.624.592.416,1.048.976,1.368,1.68.336.704.504,1.496.504,2.376,0,.864-.176,1.648-.528,2.352-.352.704-.824,1.264-1.416,1.68-.576.416-1.232.624-1.968.624Zm0-2.136c.48,0,.848-.24,1.104-.72.272-.48.408-1.08.408-1.8s-.128-1.32-.384-1.8c-.256-.48-.632-.72-1.128-.72-.48,0-.856.24-1.128.72-.272.48-.408,1.08-.408,1.8s.128,1.32.384,1.8c.272.48.656.72,1.152.72Zm-10.008,1.944c-.256,0-.528-.104-.816-.312-.288-.224-.432-.512-.432-.864,0-.208.08-.448.24-.72l9.552-14.424c.288-.384.616-.576.984-.576.272,0,.544.104.816.312.288.208.432.496.432.864,0,.208-.08.448-.24.72l-9.552,14.424c-.288.384-.616.576-.984.576Z"/>
  <path class="cls-4" d="m462.429,252.604c.492,35.615-27.982,64.886-63.598,65.378-35.615.491-64.886-27.982-65.378-63.598-.491-35.615,27.982-64.886,63.598-65.378,35.616-.492,64.886,27.982,65.378,63.598Zm-106.405,1.469c.32,23.15,19.346,41.658,42.496,41.338s41.658-19.346,41.338-42.496c-.319-23.15-19.345-41.658-42.496-41.338-23.15.319-41.658,19.345-41.338,42.496Z"/>
  <path class="cls-6" d="m397.051,189.006c13.618-.188,26.947,3.94,38.075,11.793,11.128,7.853,19.484,19.027,23.872,31.92,4.387,12.894,4.579,26.846.55,39.856-4.03,13.01-12.075,24.41-22.982,32.567-10.907,8.157-24.116,12.652-37.735,12.84-13.618.188-26.946-3.94-38.075-11.793-11.128-7.853-19.484-19.027-23.871-31.921-4.387-12.893-4.58-26.845-.55-39.855l21.562,6.678c-2.619,8.457-2.494,17.525.357,25.906,2.852,8.381,8.284,15.644,15.517,20.749,7.233,5.104,15.897,7.787,24.749,7.665,8.852-.122,17.438-3.044,24.528-8.346,7.089-5.302,12.318-12.712,14.937-21.168,2.62-8.457,2.494-17.526-.357-25.907-2.852-8.381-8.283-15.644-15.517-20.748-7.233-5.104-15.896-7.787-24.749-7.665l-.311-22.571Z"/>
  <path class="cls-5" d="m383.118,254.474l-.048-.552c.608.272,1.136.624,1.584,1.056.448.432.792.904,1.032,1.416.24.512.36,1.04.36,1.584,0,.912-.256,1.752-.768,2.52-.496.752-1.168,1.36-2.016,1.824-.848.448-1.792.672-2.832.672s-1.984-.224-2.832-.672c-.848-.464-1.528-1.072-2.04-1.824-.496-.768-.744-1.608-.744-2.52,0-.736.152-1.368.456-1.896.32-.544.712-1,1.176-1.368.48-.368.952-.672,1.416-.912l-.192.672c-.4-.16-.792-.384-1.176-.672-.368-.304-.672-.688-.912-1.152-.24-.464-.36-1.008-.36-1.632,0-.896.232-1.704.696-2.424.464-.736,1.088-1.32,1.872-1.752.8-.432,1.68-.648,2.64-.648.976,0,1.848.216,2.616.648.784.432,1.408,1.016,1.872,1.752.464.72.696,1.528.696,2.424,0,.688-.136,1.264-.408,1.728s-.6.832-.984,1.104-.752.48-1.104.624Zm-5.016-3.408c0,.432.096.816.288,1.152.208.336.488.608.84.816.352.192.752.288,1.2.288s.84-.096,1.176-.288c.352-.208.624-.48.816-.816.208-.336.312-.72.312-1.152,0-.64-.224-1.168-.672-1.584-.432-.432-.976-.648-1.632-.648-.672,0-1.232.216-1.68.648-.432.416-.648.944-.648,1.584Zm2.328,9.288c.768,0,1.416-.232,1.944-.696.528-.48.792-1.056.792-1.728,0-.464-.12-.88-.36-1.248-.24-.368-.568-.656-.984-.864-.416-.224-.88-.336-1.392-.336s-.976.112-1.392.336c-.416.208-.744.496-.984.864-.24.368-.36.784-.36,1.248,0,.672.264,1.248.792,1.728.528.464,1.176.696,1.944.696Zm14.42,2.88c-1.376,0-2.544-.36-3.504-1.08-.944-.736-1.664-1.752-2.16-3.048-.496-1.312-.744-2.816-.744-4.512,0-1.712.248-3.216.744-4.512.496-1.296,1.216-2.304,2.16-3.024.96-.736,2.128-1.104,3.504-1.104s2.536.368,3.48,1.104c.96.72,1.688,1.728,2.184,3.024.496,1.296.744,2.8.744,4.512,0,1.696-.248,3.2-.744,4.512-.496,1.296-1.224,2.312-2.184,3.048-.944.72-2.104,1.08-3.48,1.08Zm0-2.88c.672,0,1.248-.208,1.728-.624.496-.432.88-1.072,1.152-1.92.272-.864.408-1.936.408-3.216,0-1.296-.136-2.368-.408-3.216-.272-.848-.656-1.48-1.152-1.896-.48-.432-1.056-.648-1.728-.648-.656,0-1.232.216-1.728.648-.496.416-.88,1.048-1.152,1.896-.272.848-.408,1.92-.408,3.216,0,1.28.136,2.352.408,3.216.272.848.656,1.488,1.152,1.92.496.416,1.072.624,1.728.624Zm12.51-5.04c-.768,0-1.448-.208-2.04-.624-.592-.416-1.056-.976-1.392-1.68-.336-.704-.504-1.488-.504-2.352,0-.88.168-1.672.504-2.376.336-.704.8-1.264,1.392-1.68.592-.416,1.272-.624,2.04-.624.784,0,1.464.208,2.04.624.592.416,1.048.976,1.368,1.68.336.704.504,1.496.504,2.376,0,.864-.176,1.648-.528,2.352-.352.704-.824,1.264-1.416,1.68-.576.416-1.232.624-1.968.624Zm0-2.136c.48,0,.848-.24,1.104-.72.272-.48.408-1.08.408-1.8s-.128-1.32-.384-1.8c-.256-.48-.632-.72-1.128-.72-.48,0-.856.24-1.128.72s-.408,1.08-.408,1.8.128,1.32.384,1.8c.272.48.656.72,1.152.72Zm10.296,10.056c-.736,0-1.4-.208-1.992-.624-.592-.416-1.064-.976-1.416-1.68s-.528-1.488-.528-2.352c0-.88.168-1.672.504-2.376.336-.704.8-1.264,1.392-1.68.592-.416,1.272-.624,2.04-.624.784,0,1.464.208,2.04.624.592.416,1.048.976,1.368,1.68.336.704.504,1.496.504,2.376,0,.864-.176,1.648-.528,2.352-.352.704-.824,1.264-1.416,1.68-.576.416-1.232.624-1.968.624Zm0-2.136c.48,0,.848-.24,1.104-.72.272-.48.408-1.08.408-1.8s-.128-1.32-.384-1.8c-.256-.48-.632-.72-1.128-.72-.48,0-.856.24-1.128.72s-.408,1.08-.408,1.8.128,1.32.384,1.8c.272.48.656.72,1.152.72Zm-10.008,1.944c-.256,0-.528-.104-.816-.312-.288-.224-.432-.512-.432-.864,0-.208.08-.448.24-.72l9.552-14.424c.288-.384.616-.576.984-.576.272,0,.544.104.816.312.288.208.432.496.432.864,0,.208-.08.448-.24.72l-9.552,14.424c-.288.384-.616.576-.984.576Z"/>
</svg>