<?xml version="1.0" encoding="UTF-8"?>
<svg id="Lager_1" data-name="Lager 1" xmlns="http://www.w3.org/2000/svg" width="151.952" height="8.961" viewBox="0 0 151.952 8.961">
  <defs>
    <style>
      .cls-1 {
        fill: #642f3d;
      }
    </style>
  </defs>
  <path class="cls-1" d="m66.189,2.396c-.305-.494-1.138-.967-2.098-.967-1.237,0-1.831.505-1.831,1.151,0,.755.91.967,1.97,1.086,1.848.223,3.563.695,3.563,2.759,0,1.928-1.743,2.758-3.718,2.758-1.809,0-3.197-.543-3.857-2.129l1.393-.706c.394.95,1.415,1.374,2.492,1.374,1.049,0,2.037-.358,2.037-1.298,0-.815-.871-1.151-2.048-1.276-1.809-.212-3.474-.679-3.474-2.623C60.617.745,62.41.018,64.041.001c1.376,0,2.808.386,3.474,1.721l-1.326.673Z"/>
  <path class="cls-1" d="m73.57,6.415h-2.503v2.547h-1.67V.306c1.393,0,2.78-.011,4.173-.011,4.323,0,4.334,6.12,0,6.12Zm-2.503-1.493h2.503c2.137,0,2.126-3.068,0-3.068h-2.503v3.068Z"/>
  <path class="cls-1" d="m78.27,8.961V.306h1.654v8.661h-1.654v-.005Z"/>
  <path class="cls-1" d="m87.621.295h1.67v8.672h-1.038v.011l-4.65-5.848v5.837h-1.67V.306h1.354l4.334,5.37V.295Z"/>
  <path class="cls-1" d="m100.58,2.418c-.594-.559-1.482-.863-2.248-.863-1.898,0-3.047,1.412-3.047,3.193,0,1.423.849,2.894,3.047,2.894.694,0,1.305-.147,1.998-.695v-1.531h-2.264v-1.461h3.79v3.649c-.871.977-1.97,1.558-3.529,1.558-3.324,0-4.678-2.139-4.678-4.415,0-2.438,1.554-4.686,4.678-4.686,1.187,0,2.375.445,3.285,1.325l-1.032,1.032Z"/>
  <path class="cls-1" d="m111.257,8.961h-1.987l-2.581-2.894h-1.603v2.894h-1.671V.295c1.404,0,2.808.011,4.212.011,2.087.011,3.186,1.374,3.186,2.867,0,1.189-.555,2.389-2.237,2.72l2.681,2.954v.114Zm-6.166-7.135v2.769h2.542c1.06,0,1.515-.695,1.515-1.385,0-.695-.466-1.385-1.515-1.385h-2.542Z"/>
  <path class="cls-1" d="m120.952,4.682c-.028,2.237-1.427,4.48-4.54,4.48s-4.55-2.188-4.55-4.464,1.492-4.567,4.55-4.567,4.567,2.286,4.54,4.55Zm-7.448.038c.039,1.423.822,2.943,2.908,2.943s2.869-1.531,2.897-2.954c.028-1.461-.81-3.09-2.897-3.09-2.086-.005-2.941,1.64-2.908,3.101Z"/>
  <path class="cls-1" d="m131.656,8.961h-1.415l-1.099-2.72-.937-2.731-.922,2.759-1.076,2.699h-1.415l-3.247-8.661h1.87l2.087,6.245,2.148-6.245h1.087l2.215,6.245,2.02-6.245h1.87l-3.186,8.656Z"/>
  <path class="cls-1" d="m138.465,1.788h-2.808V.306h7.281v1.482h-2.808v7.173h-1.67V1.788h.005Z"/>
  <path class="cls-1" d="m150.298,8.977v-3.502h-4.351v3.502h-1.67V.316h1.67v3.649h4.351V.316h1.654v8.661h-1.654Z"/>
  <path class="cls-1" d="m55.239,3.585c-.072-.402-.15-.809-.222-1.211-.011-.06-.022-.119-.033-.174-.028-.141-.189-.201-.316-.179-.411.071-.827.147-1.238.217-.061.011-.122.022-.178.033-.133.022-.222.19-.183.31.044.141.178.201.316.179.261-.049.522-.092.783-.141-.327.451-.649.912-.999,1.341-.366-.543-1.038-.896-1.648-1.075-1.121-.331-2.469-.244-3.241.711-.4.494-.466,1.151-.205,1.727.533,1.167,1.987,1.14,3.052.777.738-.25,1.326-.673,1.837-1.178.039.261.044.532.006.793-.1.706-.505,1.358-1.01,1.863-1.376,1.396-3.774,1.32-5.239.081-2.403-2.031-.971-6.511,2.02-7.162.328-.071.189-.559-.139-.489-1.62.353-2.764,1.629-3.285,3.117-.466,1.33-.444,2.981.389,4.181,1.31,1.884,4.318,2.411,6.177,1.01,1.16-.874,1.953-2.438,1.515-3.872.422-.489.805-1.026,1.193-1.553.039.212.078.424.117.641.011.06.022.119.033.174.022.13.194.217.316.179.144-.033.211-.157.183-.299Zm-3.43,1.634c-.771.489-2.231,1.005-3.013.25-.361-.348-.477-.934-.233-1.374.366-.662,1.188-.912,1.909-.885.838.033,1.915.38,2.342,1.157-.3.32-.627.614-1.005.853Z"/>
  <path class="cls-1" d="m55.617,1.278c.199,0,.361-.158.361-.353s-.161-.353-.361-.353-.361.158-.361.353.161.353.361.353Z"/>
  <path class="cls-1" d="m4.473,8.972l-.572-1.265H1.215l-.572,1.265h-.644L2.281,3.987h.555l2.281,4.985h-.644Zm-1.909-4.257l-1.11,2.465h2.214l-1.104-2.465Z"/>
  <path class="cls-1" d="m9.994,3.987c1.088,0,1.77.635,1.77,1.548s-.683,1.548-1.77,1.548h-1.62v1.89h-.599V3.987h2.22Zm0,2.568c.733,0,1.176-.424,1.176-1.021s-.449-1.021-1.176-1.021h-1.62v2.036h1.62v.005Z"/>
  <path class="cls-1" d="m15.993,8.972l-.572-1.265h-2.686l-.572,1.265h-.644l2.286-4.985h.555l2.281,4.985h-.649Zm-1.903-4.257l-1.11,2.465h2.214l-1.104-2.465Z"/>
  <path class="cls-1" d="m20.872,8.972l-1.948-2.134h-.938v2.134h-.599V3.987h2.359c.993,0,1.665.565,1.665,1.423s-.672,1.428-1.665,1.428h-.089l1.97,2.134h-.755Zm-1.127-2.672c.638,0,1.066-.358,1.066-.891,0-.538-.427-.891-1.066-.891h-1.759v1.787h1.759v-.005Z"/>
  <path class="cls-1" d="m24.273,4.514v4.458h-.61v-4.458h-1.892v-.527h4.39v.527h-1.887Z"/>
  <path class="cls-1" d="m33.952,6.48c0,1.45-1.154,2.59-2.63,2.59s-2.636-1.14-2.636-2.59,1.154-2.59,2.636-2.59,2.63,1.146,2.63,2.59Zm-.605,0c0-1.146-.888-2.036-2.025-2.036s-2.031.891-2.031,2.036.888,2.031,2.031,2.031c1.132,0,2.025-.88,2.025-2.031Z"/>
  <path class="cls-1" d="m35.639,6.257h2.786v.527h-2.786v2.188h-.599V3.987h3.652v.527h-3.052v1.743Z"/>
</svg>